<svg width="130" height="33" viewBox="0 0 130 33" fill="none" xmlns="http://www.w3.org/2000/svg">
<path d="M37.1719 22.1225L44.2382 5.11426H46.8117L53.8781 22.1371H50.6648L49.2835 18.7471H41.7519L40.3706 22.1371H37.1719V22.1225ZM42.7115 16.2193H48.3529L45.5322 9.27864L42.7115 16.2193Z" fill="#364054"/>
<path d="M55.4922 22.1229V9.81969H58.3856V11.6462C58.9672 10.3457 60.3048 9.57129 62.0351 9.57129C62.3695 9.57129 62.6603 9.60051 62.9075 9.64435V12.4791C62.544 12.406 62.1369 12.3622 61.6861 12.3622C59.6651 12.3622 58.3856 13.6334 58.3856 15.6644V22.1375H55.4922V22.1229Z" fill="#364054"/>
<path d="M64.4336 6.64897C64.4336 5.66997 65.2042 4.91016 66.1784 4.91016C67.1235 4.91016 67.9086 5.66997 67.9086 6.64897C67.9086 7.62797 67.138 8.38778 66.1784 8.38778C65.2042 8.38778 64.4336 7.62797 64.4336 6.64897ZM64.7244 22.1229V9.81975H67.6323V22.1229H64.7244Z" fill="#364054"/>
<path d="M70.89 18.3673C71.4425 19.2441 72.6347 19.9016 74.1178 19.9016C75.6445 19.9016 76.2987 19.3171 76.2987 18.5573C76.2987 18.1482 76.0079 17.7975 75.6008 17.5783C75.3391 17.403 74.8302 17.2422 74.4522 17.1107C74.0887 16.9938 73.3617 16.7746 72.9401 16.5993C70.9772 15.8979 69.9303 14.8897 69.9303 13.1363C69.9303 11.982 70.3374 11.1052 71.1662 10.4477C72.0095 9.79018 73.0418 9.4541 74.2486 9.4541C75.9789 9.4541 77.2874 10.0678 78.2035 11.266L76.575 13.0048C76.037 12.318 75.2373 11.982 74.1905 11.982C73.289 11.982 72.7074 12.4203 72.7074 13.0778C72.7074 13.487 72.9255 13.7062 73.2599 13.9253C73.449 14.0422 73.9433 14.2468 74.2486 14.3637C74.6121 14.466 75.2955 14.6998 75.7753 14.8751C78.029 15.6788 79.0613 16.7746 79.0613 18.5427C79.0613 20.8075 77.3601 22.4441 74.0305 22.4441C71.5733 22.4441 69.7559 21.4943 68.9707 19.96L70.89 18.3673Z" fill="#364054"/>
<path d="M81.3301 22.1225V5.11426H84.3689V22.1371H81.3301V22.1225Z" fill="#364054"/>
<path d="M87.4062 22.1229V9.81969H90.2997V11.5731C90.8813 10.3749 92.2625 9.57129 94.0218 9.57129C96.9298 9.57129 98.66 11.4562 98.66 14.4955V22.1083H95.7521V14.9046C95.7521 13.2243 94.7779 12.1722 93.1495 12.1722C91.4919 12.1722 90.3142 13.3412 90.3142 15.0215V22.1083H87.4062V22.1229Z" fill="#364054"/>
<path d="M102.222 22.1226V12.4787H100.23V9.81938H102.222V9.20568C102.222 7.32075 102.615 6.32714 103.56 5.56732C104.214 5.02669 105.218 4.76367 106.599 4.76367C107.079 4.76367 107.5 4.7929 107.864 4.86595V7.3792C107.646 7.30614 107.253 7.2623 106.744 7.2623C105.654 7.2623 105.145 7.74449 105.145 9.00111V9.83399H107.457V12.4934H105.145V22.1372H102.222V22.1226Z" fill="#364054"/>
<path d="M109.145 22.1229V9.81969H112.038V11.6462C112.62 10.3457 113.957 9.57129 115.687 9.57129C116.022 9.57129 116.313 9.60051 116.56 9.64435V12.4791C116.196 12.406 115.789 12.3622 115.338 12.3622C113.317 12.3622 112.038 13.6334 112.038 15.6644V22.1375H109.145V22.1229Z" fill="#364054"/>
<path d="M127.071 11.6023V9.81965H129.979V22.1229H127.071V20.3402C126.664 21.5384 125.181 22.3859 123.16 22.3859C121.43 22.3859 119.976 21.7722 118.784 20.5594C117.621 19.3174 117.039 17.7977 117.039 15.9713C117.039 14.1448 117.621 12.6251 118.784 11.4123C119.976 10.1703 121.43 9.55664 123.16 9.55664C125.181 9.55664 126.664 10.4041 127.071 11.6023ZM126.199 18.6598C126.926 17.9585 127.29 17.0525 127.29 15.9713C127.29 14.89 126.926 13.9987 126.199 13.2827C125.501 12.5813 124.6 12.2014 123.553 12.2014C122.506 12.2014 121.663 12.5667 120.95 13.2827C120.267 13.984 119.932 14.89 119.932 15.9713C119.932 17.0525 120.267 17.9439 120.95 18.6598C121.648 19.3612 122.506 19.7411 123.553 19.7411C124.6 19.7411 125.501 19.3612 126.199 18.6598Z" fill="#364054"/>
<path d="M117.228 6.47266C117.489 6.47266 117.722 6.69183 117.722 6.96946C117.722 7.24709 117.489 7.46626 117.228 7.46626C116.966 7.46626 116.719 7.24709 116.719 6.96946C116.719 6.70645 116.966 6.47266 117.228 6.47266Z" fill="#364054"/>
<path d="M117.896 5.58111C117.896 5.04047 118.086 4.57289 118.478 4.2076C118.856 3.8423 119.336 3.65234 119.888 3.65234C120.441 3.65234 120.906 3.8423 121.299 4.2076C121.677 4.57289 121.88 5.04047 121.88 5.58111C121.88 6.12175 121.691 6.58933 121.299 6.95463C120.921 7.31992 120.441 7.50988 119.888 7.50988C119.336 7.50988 118.871 7.31992 118.478 6.95463C118.086 6.58933 117.896 6.13636 117.896 5.58111ZM120.688 6.39938C120.906 6.1802 121.008 5.90257 121.008 5.58111C121.008 5.25965 120.906 4.98202 120.688 4.76285C120.47 4.54367 120.208 4.42677 119.888 4.42677C119.569 4.42677 119.292 4.52906 119.074 4.76285C118.871 4.98202 118.754 5.24504 118.754 5.58111C118.754 5.90257 118.856 6.1802 119.074 6.39938C119.292 6.61855 119.554 6.72084 119.888 6.72084C120.194 6.73545 120.47 6.61855 120.688 6.39938Z" fill="#364054"/>
<path d="M122.404 7.40767V3.7547H123.262V4.28073C123.437 3.93004 123.844 3.68164 124.367 3.68164C125.24 3.68164 125.748 4.23689 125.748 5.14283V7.40767H124.876V5.27433C124.876 4.77753 124.585 4.45607 124.105 4.45607C123.611 4.45607 123.262 4.80675 123.262 5.30356V7.40767H122.404Z" fill="#364054"/>
<path d="M126.243 5.58111C126.243 4.99664 126.418 4.54367 126.781 4.17837C127.145 3.82769 127.595 3.65234 128.148 3.65234C128.671 3.65234 129.107 3.82769 129.442 4.17837C129.776 4.52906 129.951 4.96741 129.951 5.49344C129.951 5.59572 129.936 5.69801 129.936 5.80029H127.101C127.13 6.38476 127.552 6.76467 128.191 6.76467C128.569 6.76467 128.889 6.63317 129.166 6.34093L129.689 6.85234C129.282 7.2907 128.773 7.50988 128.162 7.50988C127.595 7.50988 127.13 7.33454 126.766 6.99846C126.403 6.66239 126.229 6.19481 126.229 5.62495V5.58111H126.243ZM129.064 5.2012C129.064 4.98202 128.977 4.79207 128.788 4.64595C128.613 4.48522 128.395 4.41216 128.148 4.41216C127.886 4.41216 127.639 4.48522 127.45 4.64595C127.261 4.79207 127.145 4.98202 127.13 5.21581H129.064V5.2012Z" fill="#364054"/>
<path d="M0.0366267 26.8714C-0.0506118 27.0321 0.022087 27.1636 0.211104 27.1636H5.28548C5.4745 27.1636 5.70713 27.0321 5.79437 26.8714L10.3744 18.8933C10.4616 18.7326 10.6216 18.7326 10.7088 18.8933L18.1677 31.8833C18.2549 32.044 18.4149 32.044 18.5021 31.8833L21.0466 27.4559C21.1338 27.2951 21.1338 27.0321 21.0466 26.8568L10.7234 8.86957C10.6361 8.70884 10.4762 8.70884 10.3889 8.86957L0.0366267 26.8714Z" fill="#FFC117"/>
<path d="M16.2054 0.292237C16.1036 0.131507 15.871 0 15.682 0H10.6076C10.4186 0 10.3459 0.131507 10.4331 0.292237L25.6999 26.8712C25.7871 27.032 26.0197 27.1635 26.2088 27.1635H31.2831C31.4721 27.1635 31.5448 27.032 31.4576 26.8712L16.2054 0.292237Z" fill="#FFC117"/>
</svg>
